<svg xmlns="http://www.w3.org/2000/svg" version="1.1" xmlns:xlink="http://www.w3.org/1999/xlink" xmlns:svgjs="http://svgjs.dev/svgjs" width="1000" height="1000" viewBox="0 0 1000 1000"><g transform="matrix(1,0,0,1,-0.14221556886212738,-0.14221556886229791)"><svg viewBox="0 0 334 334" data-background-color="#ffffff" preserveAspectRatio="xMidYMid meet" height="1000" width="1000" xmlns="http://www.w3.org/2000/svg" xmlns:xlink="http://www.w3.org/1999/xlink"><g id="tight-bounds" transform="matrix(1,0,0,1,0.04749999999998522,0.04750000000001364)"><svg viewBox="0 0 333.90454557049503 333.90454557049503" height="333.90454557049503" width="333.90454557049503"><g><svg></svg></g><g><svg viewBox="0 0 333.90454557049503 333.90454557049503" height="333.90454557049503" width="333.90454557049503"><g><path d="M0 166.952c0-92.205 74.747-166.952 166.952-166.952 92.205 0 166.952 74.747 166.953 166.952 0 92.205-74.747 166.952-166.953 166.953-92.205 0-166.952-74.747-166.952-166.953zM166.952 316.63c82.665 0 149.677-67.013 149.678-149.678 0-82.665-67.013-149.677-149.678-149.677-82.665 0-149.677 67.013-149.677 149.677 0 82.665 67.013 149.677 149.677 149.678z" data-fill-palette-color="tertiary" fill="#ed2647" stroke="transparent"></path><ellipse rx="160.27418187383762" ry="160.27418187383762" cx="166.95227278524752" cy="166.95227278524752" fill="#ed2647" stroke="transparent" stroke-width="0" fill-opacity="1" data-fill-palette-color="tertiary"></ellipse></g><g transform="matrix(1,0,0,1,96.65442236164506,71.17305217166896)"><svg viewBox="0 0 140.5957008472049 191.55844122715712" height="191.55844122715712" width="140.5957008472049"><g><svg viewBox="0 0 140.5957008472049 191.55844122715712" height="191.55844122715712" width="140.5957008472049"><g><svg viewBox="0 0 140.5957008472049 191.55844122715712" height="191.55844122715712" width="140.5957008472049"><g><svg viewBox="0 0 140.5957008472049 191.55844122715712" height="191.55844122715712" width="140.5957008472049"><g><svg viewBox="0 0 140.5957008472049 191.55844122715712" height="191.55844122715712" width="140.5957008472049"><g><svg viewBox="0 0 140.5957008472049 191.55844122715712" height="191.55844122715712" width="140.5957008472049"><g transform="matrix(1,0,0,1,0,0)"><svg width="140.5957008472049" viewBox="2.0999999046325684 -37.099998474121094 27.44999885559082 37.39999771118164" height="191.55844122715712" data-palette-color="#ffffff"><path d="M24.75-37.1L29.55-37.1 29.55 0 24.95 0 24.95-4.2Q23.35-2 20.9-0.85 18.45 0.3 15.5 0.3L15.5 0.3Q11.65 0.3 8.6-1.4 5.55-3.1 3.83-6.18 2.1-9.25 2.1-13.25L2.1-13.25Q2.1-17.25 3.83-20.3 5.55-23.35 8.6-25.05 11.65-26.75 15.5-26.75L15.5-26.75Q18.35-26.75 20.75-25.68 23.15-24.6 24.75-22.5L24.75-22.5 24.75-37.1ZM15.9-3.9Q18.4-3.9 20.45-5.08 22.5-6.25 23.65-8.38 24.8-10.5 24.8-13.25L24.8-13.25Q24.8-16 23.65-18.13 22.5-20.25 20.45-21.4 18.4-22.55 15.9-22.55L15.9-22.55Q13.35-22.55 11.33-21.4 9.3-20.25 8.13-18.13 6.95-16 6.95-13.25L6.95-13.25Q6.95-10.5 8.13-8.38 9.3-6.25 11.33-5.08 13.35-3.9 15.9-3.9L15.9-3.9Z" opacity="1" transform="matrix(1,0,0,1,0,0)" fill="#ffffff" class="undefined-text-0" data-fill-palette-color="quaternary" id="text-0"></path></svg></g></svg></g></svg></g></svg></g><g></g></svg></g></svg></g></svg></g></svg></g><defs></defs></svg><rect width="333.90454557049503" height="333.90454557049503" fill="none" stroke="none" visibility="hidden"></rect></g></svg></g></svg>